<?xml version="1.0" encoding="utf-8"?>
<!-- Generator: Adobe Illustrator 18.1.1, SVG Export Plug-In . SVG Version: 6.00 Build 0)  -->
<svg version="1.1" id="Layer_1" xmlns="http://www.w3.org/2000/svg" xmlns:xlink="http://www.w3.org/1999/xlink" x="0px" y="0px"
	 viewBox="0 0 50 50" enable-background="new 0 0 50 50" xml:space="preserve">
<path fill="#F15A29" d="M27.9,24.4c0.3,1.7-0.8,3.3-2.4,3.7s-3.2-0.8-3.5-2.5c-0.3-1.7,0.8-3.3,2.4-3.7S27.6,22.7,27.9,24.4z"/>
<g>
	<path d="M30.1,19.9c0,0,0.2,0.3,0.6,0.8c0.4,0.5,0.9,1.2,1.6,2.2c0.6,1,1.4,2.2,2.2,3.6c0.4,0.7,0.8,1.5,1.3,2.3
		c0.4,0.8,0.7,1.7,1.1,2.7c0.7,1.9,1.4,4,1.7,6.3c0.2,1.2,0.2,2.4,0,3.7c-0.1,0.7-0.4,1.3-0.8,2c-0.2,0.3-0.5,0.6-0.9,0.8l-0.2,0.1
		l-0.3,0.1c-0.2,0.1-0.4,0.1-0.6,0.2c-1.6,0.2-2.9-0.4-4.1-1c-1.2-0.7-2.3-1.5-3.3-2.3c-2-1.7-3.8-3.7-5.5-5.8
		c-3.3-4.2-6.1-8.8-8.2-13.4c-1-2.3-1.9-4.6-2.5-6.8c-0.6-2.3-1-4.5-0.6-6.7c0.1-0.5,0.3-1.1,0.6-1.6c0.3-0.5,0.8-1,1.3-1.2
		c1.2-0.5,2.2-0.2,3,0c1.6,0.6,2.7,1.6,3.7,2.3c0.9,0.8,1.5,1.4,1.9,1.9c0.4,0.5,0.6,0.7,0.6,0.7s-0.3-0.2-0.7-0.6
		c-0.5-0.4-1.2-0.9-2.2-1.6c-1-0.6-2.2-1.3-3.6-1.7c-0.7-0.2-1.5-0.1-2,0.2c-0.3,0.2-0.5,0.4-0.7,0.7C13.2,8,13.1,8.4,13,8.8
		c-0.3,1.7,0,3.9,0.5,6c0.6,2.1,1.4,4.4,2.4,6.6c2,4.4,4.7,9,8,13.1c1.6,2,3.4,4,5.3,5.6c1,0.8,2,1.6,3,2.2c1,0.6,2.2,1,3.1,0.9
		c0.1,0,0.2,0,0.3-0.1c0,0,0.1,0,0.1,0l0.2-0.1c0.2-0.1,0.3-0.2,0.5-0.4c0.3-0.4,0.4-0.8,0.5-1.3c0.2-1,0.1-2.2,0-3.2
		c-0.3-2.2-0.9-4.2-1.6-6c-0.3-0.9-0.7-1.8-1-2.6c-0.3-0.8-0.6-1.6-0.9-2.4c-0.6-1.5-1.2-2.7-1.7-3.8C30.7,21,30.1,19.9,30.1,19.9z"
		/>
</g>
<g>
	<path d="M25.5,39.5c0,0-0.1,0.2-0.4,0.7c-0.3,0.4-0.7,1.1-1.3,1.9c-0.6,0.8-1.4,1.7-2.5,2.7c-0.6,0.5-1.2,0.9-2.1,1.2
		c-0.4,0.2-0.9,0.2-1.4,0.2c-0.3,0-0.5-0.1-0.8-0.2l-0.2-0.1l0,0l-0.1,0l-0.1,0c-0.1-0.1-0.2-0.1-0.3-0.2c-0.5-0.4-0.8-0.8-1.1-1.2
		c-0.3-0.4-0.4-0.9-0.6-1.4c-0.3-1-0.4-2-0.4-3c-0.1-2,0.2-4.1,0.6-6.2c0.8-4.2,2.2-8.5,4-12.7c1.8-4.2,4-8.2,6.6-11.6
		c1.3-1.7,2.7-3.3,4.4-4.5c0.9-0.6,1.8-1.1,2.9-1.2c0.6,0,1.1,0,1.7,0.4l0.3,0.2c0.1,0.1,0.2,0.2,0.3,0.3c0.3,0.2,0.4,0.4,0.6,0.6
		c1.2,1.7,1.1,3.4,1,4.8c-0.1,1.4-0.3,2.6-0.5,3.6c-0.2,1-0.4,1.7-0.5,2.2c-0.1,0.5-0.2,0.8-0.2,0.8s0.1-1.1,0.2-3.1
		c0-1,0-2.2-0.1-3.5c-0.1-0.7-0.2-1.4-0.4-2c-0.2-0.7-0.3-1.4-0.7-1.9c-0.1-0.1-0.2-0.3-0.3-0.3c-0.1,0-0.1-0.1-0.1-0.1l-0.3-0.2
		c-0.2-0.1-0.5-0.2-0.9-0.1c-0.7,0-1.5,0.4-2.2,0.9c-1.5,1-2.8,2.5-4.1,4.1c-2.5,3.3-4.6,7.2-6.4,11.3c-1.7,4.1-3.1,8.3-3.9,12.4
		c-0.4,2-0.6,4-0.5,5.9c0,0.9,0.1,1.8,0.4,2.6c0.2,0.8,0.6,1.5,1,1.8c0.6,0.4,1.1,0.3,1.7,0.2c0.6-0.1,1.2-0.4,1.8-0.7
		c1.1-0.7,2-1.4,2.7-2.1c0.7-0.7,1.2-1.2,1.6-1.6C25.3,39.7,25.5,39.5,25.5,39.5z"/>
</g>
<g>
	<path d="M13.3,31.1c0,0-0.3,0-0.8-0.1c-0.5-0.1-1.2-0.2-2.2-0.4c-0.9-0.2-2.1-0.5-3.3-1.1c-0.6-0.3-1.3-0.6-2-1.1
		c-0.7-0.5-1.2-1.2-1.6-2.1c-0.1-0.2-0.2-0.5-0.2-0.8c0-0.2,0-0.2,0-0.4l0-0.3c0.1-0.6,0.3-1.1,0.5-1.5c0.6-0.9,1.3-1.5,2.1-2.1
		c1.7-1.1,3.6-1.8,5.5-2.4c4-1.1,8.4-1.7,12.7-1.7c4.4-0.1,8.7,0.3,12.8,1.2c2,0.5,3.9,1.1,5.7,1.9c0.9,0.4,1.7,0.9,2.4,1.6
		c0.7,0.6,1.4,1.5,1.6,2.5c0.1,0.3,0.1,0.5,0.1,0.8l0,0.3c0,0.1,0,0.3-0.1,0.4c-0.1,0.5-0.3,0.9-0.6,1.3c-0.5,0.7-1.2,1.1-1.8,1.5
		c-1.2,0.7-2.3,1.1-3.2,1.4c-0.9,0.3-1.6,0.4-2.1,0.6c-0.5,0.1-0.8,0.2-0.8,0.2s0.3-0.1,0.7-0.3c0.5-0.2,1.1-0.5,2-0.9
		c0.8-0.4,1.8-1,2.8-1.8c0.5-0.4,0.9-0.9,1.2-1.4c0.1-0.3,0.3-0.6,0.3-0.8c0-0.1,0-0.1,0.1-0.2l0-0.3c0-0.1,0-0.3,0-0.4
		c-0.2-1.2-1.6-2.3-3.2-3c-1.6-0.8-3.4-1.4-5.3-1.8c-1.9-0.4-4-0.8-6.1-0.9c-2.1-0.2-4.2-0.3-6.4-0.2c-4.3,0.1-8.5,0.6-12.3,1.7
		c-1.9,0.6-3.7,1.2-5.1,2.2c-0.7,0.5-1.3,1-1.7,1.6c-0.2,0.3-0.3,0.6-0.3,0.9l0,0.3c0,0,0,0.1,0,0.2c0,0.1,0.1,0.3,0.1,0.4
		c0.2,0.6,0.7,1,1.2,1.5c0.5,0.5,1,0.9,1.5,1.2c1.1,0.7,2.1,1.2,3,1.5C12.3,30.8,13.3,31.1,13.3,31.1z"/>
</g>
<path fill="none" stroke="#000000" stroke-miterlimit="10" d="M25.5,39.5"/>
</svg>
